<svg xmlns="http://www.w3.org/2000/svg" viewBox="0 0 1200 400" width="1200" height="400" role="img" aria-label="generic institution cover">
<defs><linearGradient id="g" x1="0" y1="0" x2="1" y2="1"><stop offset="0" stop-color="#1F5D46"/><stop offset="1" stop-color="#174837"/></linearGradient></defs>
<rect width="1200" height="400" fill="url(#g)"/>
<g opacity=".18" fill="#fff"><rect x="180" y="170" width="240" height="150" rx="8"/><rect x="470" y="130" width="260" height="190" rx="8"/><rect x="780" y="185" width="240" height="135" rx="8"/><rect x="210" y="200" width="40" height="40" rx="4"/><rect x="280" y="200" width="40" height="40" rx="4"/><rect x="350" y="200" width="40" height="40" rx="4"/><rect x="500" y="165" width="44" height="44" rx="4"/><rect x="576" y="165" width="44" height="44" rx="4"/><rect x="652" y="165" width="44" height="44" rx="4"/><rect x="810" y="215" width="40" height="40" rx="4"/><rect x="880" y="215" width="40" height="40" rx="4"/></g>
<text x="600" y="360" text-anchor="middle" fill="#ffffff" font-family="Segoe UI,Tahoma,Arial" font-size="22" opacity=".75">Generic university placeholder</text>
</svg>